<?xml version="1.0" encoding="UTF-8" standalone="no"?>
<svg
   width="17px"
   height="17px"
   viewBox="0 -2.5 17 17"
   version="1.1"
   id="svg3"
   sodipodi:docname="shopping-bag-white.svg"
   inkscape:version="1.2.1 (9c6d41e, 2022-07-14)"
   xmlns:inkscape="http://www.inkscape.org/namespaces/inkscape"
   xmlns:sodipodi="http://sodipodi.sourceforge.net/DTD/sodipodi-0.dtd"
   xmlns="http://www.w3.org/2000/svg"
   xmlns:svg="http://www.w3.org/2000/svg">
  <defs
     id="defs7" />
  <sodipodi:namedview
     id="namedview5"
     pagecolor="#ffffff"
     bordercolor="#000000"
     borderopacity="0.25"
     inkscape:showpageshadow="2"
     inkscape:pageopacity="0.0"
     inkscape:pagecheckerboard="0"
     inkscape:deskcolor="#d1d1d1"
     showgrid="false"
     inkscape:zoom="13.882353"
     inkscape:cx="8.5"
     inkscape:cy="8.5"
     inkscape:window-width="1470"
     inkscape:window-height="456"
     inkscape:window-x="0"
     inkscape:window-y="37"
     inkscape:window-maximized="0"
     inkscape:current-layer="svg3" />
  <path
     id="Path_7"
     data-name="Path 7"
     d="M246.973,826.978l-1.594,6.42c-.7,1.993-1.188,2.6-2.656,2.6h-8.5c-1.467,0-2.05-.463-2.656-2.6l-1.594-6.42h8.163l3.03-2.982.751.735-2.282,2.247Zm-15.638,1.009,1.295,5.443a1.677,1.677,0,0,0,1.594,1.561h8.5c.88,0,1.382-.605,1.594-1.561l1.295-5.443ZM240.973,830h1v2.969h-1Zm-2,0h1v2.969h-1Zm-2,0h1v2.969h-1Zm-2,0h1v2.969h-1Z"
     transform="translate(-229.973 -823.996)"
     fill="#444"
     style="fill:#ffffff" />
</svg>
