<svg width="18" height="18" viewBox="0 0 18 18" fill="none" xmlns="http://www.w3.org/2000/svg">
<path d="M6.46967 3.53033C6.76256 3.82322 7.23744 3.82322 7.53033 3.53033L8.25 2.81066V8.25H2.81066L3.53033 7.53033C3.82322 7.23744 3.82322 6.76256 3.53033 6.46967C3.23744 6.17678 2.76256 6.17678 2.46967 6.46967L0.46967 8.46967C0.176777 8.76256 0.176777 9.23744 0.46967 9.53033L2.46967 11.5303C2.76256 11.8232 3.23744 11.8232 3.53033 11.5303C3.82322 11.2374 3.82322 10.7626 3.53033 10.4697L2.81066 9.75H8.25V15.1893L7.53033 14.4697C7.23744 14.1768 6.76256 14.1768 6.46967 14.4697C6.17678 14.7626 6.17678 15.2374 6.46967 15.5303L8.46967 17.5303C8.76256 17.8232 9.23744 17.8232 9.53033 17.5303L11.5303 15.5303C11.8232 15.2374 11.8232 14.7626 11.5303 14.4697C11.2374 14.1768 10.7626 14.1768 10.4697 14.4697L9.75 15.1893V9.75H15.1893L14.4697 10.4697C14.1768 10.7626 14.1768 11.2374 14.4697 11.5303C14.7626 11.8232 15.2374 11.8232 15.5303 11.5303L17.5303 9.53033C17.8232 9.23744 17.8232 8.76256 17.5303 8.46967L15.5303 6.46967C15.2374 6.17678 14.7626 6.17678 14.4697 6.46967C14.1768 6.76256 14.1768 7.23744 14.4697 7.53033L15.1893 8.25H9.75V2.81066L10.4697 3.53033C10.7626 3.82322 11.2374 3.82322 11.5303 3.53033C11.8232 3.23744 11.8232 2.76256 11.5303 2.46967L9.53033 0.46967C9.23744 0.176777 8.76256 0.176777 8.46967 0.46967L6.46967 2.46967C6.17678 2.76256 6.17678 3.23744 6.46967 3.53033Z" fill="black"/>
</svg>
