<svg width="24" height="24" viewBox="0 0 24 24" fill="none" xmlns="http://www.w3.org/2000/svg">
<path fill-rule="evenodd" clip-rule="evenodd" d="M7.25003 5.46126V6.69904C6.88074 6.7269 6.51163 6.758 6.14276 6.79236C4.47367 6.94781 3.19739 8.34848 3.19739 10.0248V17.9754C3.19739 19.6517 4.47367 21.0523 6.14276 21.2078C10.0392 21.5707 13.9609 21.5707 17.8573 21.2078C19.5264 21.0523 20.8027 19.6517 20.8027 17.9754V10.0248C20.8027 8.34848 19.5264 6.94781 17.8573 6.79236C17.4884 6.758 17.1193 6.7269 16.75 6.69905V5.46126C16.75 4.59501 16.1163 3.85912 15.2596 3.73062L14.0397 3.54763C12.6875 3.3448 11.3126 3.3448 9.96035 3.54763L8.74043 3.73062C7.88378 3.85912 7.25003 4.59501 7.25003 5.46126ZM13.8172 5.03104C12.6125 4.85033 11.3876 4.85033 10.1829 5.03104L8.96295 5.21402C8.84056 5.23238 8.75003 5.33751 8.75003 5.46126V6.60385C10.9153 6.49229 13.0848 6.49229 15.25 6.60385V5.46126C15.25 5.33751 15.1595 5.23238 15.0371 5.21402L13.8172 5.03104ZM17.7182 8.28589C13.9143 7.93161 10.0857 7.93161 6.28186 8.28589C5.38397 8.36952 4.69739 9.12301 4.69739 10.0248V10.2501H19.3027V10.0248C19.3027 9.12301 18.6161 8.36952 17.7182 8.28589ZM19.3027 11.7501H4.69739V17.9754C4.69739 18.8771 5.38397 19.6306 6.28186 19.7143C10.0857 20.0685 13.9143 20.0685 17.7182 19.7143C18.6161 19.6306 19.3027 18.8771 19.3027 17.9754V11.7501Z" fill="black"/>
</svg>
