<svg width="207" height="68" viewBox="0 0 207 68" fill="none" xmlns="http://www.w3.org/2000/svg">
<g clip-path="url(#clip0_41_563)">
<path d="M202.681 4.3147H4.31445V63.4624H202.681V4.3147Z" stroke="#090400" stroke-width="1.18782" stroke-miterlimit="10"/>
<path d="M205.808 1.18774H1.18799V66.5893H205.808V1.18774Z" stroke="#090400" stroke-width="2.37984" stroke-miterlimit="10"/>
<path d="M39.8102 29.9178C39.8102 32.2683 39.4283 33.8254 36.6371 37.6995L29.9677 46.9712H28.4441L34.7945 38.157C33.4017 38.8926 31.8608 39.3043 30.2867 39.3616C24.7295 39.3616 20.7925 35.1644 20.7925 29.9304C20.7925 24.6964 24.7421 20.3984 30.2867 20.3984C35.8312 20.3984 39.8102 24.6502 39.8102 29.9178ZM38.551 29.9178C38.551 25.1875 35.0254 21.666 30.2951 21.666C25.5648 21.666 22.0726 25.1875 22.0726 29.9178C22.0456 31.0052 22.2398 32.0867 22.6433 33.0967C23.0469 34.1068 23.6515 35.0243 24.4205 35.7936C25.1894 36.5629 26.1066 37.168 27.1164 37.5721C28.1263 37.9762 29.2077 38.1709 30.2951 38.1444C35.017 38.1444 38.5427 34.6187 38.5427 29.9178H38.551Z" fill="#090400"/>
<path d="M60.4187 37.8884C60.4187 43.1601 56.4817 47.4161 50.9245 47.4161C45.3673 47.4161 41.3967 43.1601 41.3967 37.8884C41.3967 35.5379 41.7787 33.9849 44.5741 30.1108L51.2393 20.8391H52.7671L46.4166 29.6533C47.8083 28.9141 49.3497 28.5008 50.9245 28.4445C56.4817 28.4571 60.4187 32.6502 60.4187 37.8884ZM59.1595 37.8884C59.186 36.8013 58.9914 35.7203 58.5875 34.7107C58.1837 33.7012 57.579 32.7842 56.8101 32.0153C56.0413 31.2464 55.1243 30.6417 54.1147 30.2379C53.1052 29.8341 52.0241 29.6395 50.9371 29.6659C46.2068 29.6659 42.6811 33.1916 42.6811 37.8884C42.6522 38.9804 42.846 40.0669 43.2507 41.0816C43.6554 42.0963 44.2625 43.018 45.0349 43.7905C45.8074 44.563 46.7291 45.17 47.7438 45.5747C48.7585 45.9794 49.845 46.1732 50.9371 46.1443C55.6212 46.1443 59.1595 42.6187 59.1595 37.8884Z" fill="#090400"/>
<path d="M67.0833 20.8393H68.3928L83.952 44.621V20.8184H85.2112V46.984H84.0066L68.355 23.0597V46.984H67.0958L67.0833 20.8393Z" fill="#090400"/>
<path d="M104.834 47.4457C102.149 47.449 99.5238 46.6561 97.2898 45.1674C95.0557 43.6786 93.3133 41.5608 92.2829 39.0818C91.2524 36.6027 90.9802 33.8738 91.5007 31.2401C92.0212 28.6064 93.311 26.1861 95.207 24.2854C97.103 22.3848 99.52 21.089 102.152 20.562C104.785 20.035 107.514 20.3004 109.996 21.3247C112.478 22.349 114.6 24.0862 116.094 26.3165C117.588 28.5469 118.388 31.1703 118.391 33.855C118.405 35.6409 118.065 37.412 117.389 39.0652C116.713 40.7185 115.716 42.2209 114.455 43.4854C113.193 44.7499 111.693 45.7511 110.042 46.431C108.39 47.1108 106.62 47.4557 104.834 47.4457ZM104.834 21.5696C102.398 21.5663 100.017 22.2858 97.9901 23.6369C95.9637 24.988 94.3837 26.9101 93.4503 29.1597C92.5169 31.4094 92.2721 33.8854 92.7467 36.2742C93.2214 38.6631 94.3942 40.8574 96.1167 42.5793C97.8392 44.3012 100.034 45.4733 102.423 45.9471C104.812 46.421 107.288 46.1753 109.537 45.2411C111.786 44.3069 113.708 42.7263 115.058 40.6994C116.409 38.6726 117.128 36.2905 117.123 33.855C117.139 32.2371 116.831 30.6324 116.219 29.1347C115.606 27.6371 114.702 26.2766 113.557 25.1327C112.413 23.9888 111.052 23.0845 109.554 22.4727C108.057 21.8609 106.452 21.5539 104.834 21.5696Z" fill="#090400"/>
<path d="M133.653 38.5895L138.891 46.984H137.401L132.364 38.9799C131.23 39.2492 130.067 39.3774 128.902 39.3618H125.569V47.0134H124.31V20.8184H128.927C136.515 20.8184 139.277 25.2632 139.277 30.0901C139.273 33.6997 137.649 37.0953 133.653 38.5895ZM128.923 38.0817C134.862 38.0817 138.005 35.0009 138.005 30.0775C138.005 24.9359 134.732 22.0775 128.923 22.0775H125.59V38.0817H128.923Z" fill="#090400"/>
<path d="M149.106 22.0438H142.659V20.7847H156.787V22.0438H150.374V46.9713H149.115L149.106 22.0438Z" fill="#090400"/>
<path d="M162.185 20.8391H163.444V32.6838H177.954V20.8391H179.213V46.9712H177.954V33.9597H163.457V46.9712H162.197V34.1066V33.8632H159.444V32.6963H162.197V32.4739V20.8391H162.185Z" fill="#090400"/>
<path d="M186.161 22.917C186.173 23.3422 186.057 23.7612 185.829 24.1203C185.601 24.4795 185.271 24.7625 184.882 24.933C184.492 25.1035 184.06 25.1538 183.642 25.0774C183.223 25.001 182.837 24.8015 182.533 24.5044C182.228 24.2072 182.02 23.8259 181.933 23.4094C181.847 22.9929 181.887 22.5601 182.048 22.1665C182.209 21.7728 182.484 21.4362 182.838 21.1998C183.191 20.9633 183.608 20.8378 184.033 20.8393C184.309 20.8354 184.584 20.8862 184.84 20.9886C185.097 21.091 185.331 21.2431 185.528 21.4361C185.726 21.6292 185.884 21.8593 185.992 22.1135C186.101 22.3676 186.158 22.6406 186.161 22.917ZM182.421 22.917C182.412 23.1353 182.447 23.3531 182.525 23.5574C182.603 23.7616 182.721 23.9479 182.873 24.1049C183.025 24.2619 183.207 24.3864 183.409 24.4708C183.61 24.5552 183.827 24.5978 184.045 24.5959C184.443 24.5358 184.805 24.3352 185.067 24.0306C185.329 23.726 185.473 23.3376 185.473 22.9359C185.473 22.5341 185.329 22.1457 185.067 21.8411C184.805 21.5365 184.443 21.3359 184.045 21.2758C183.83 21.2747 183.617 21.3165 183.419 21.3988C183.22 21.481 183.04 21.6022 182.888 21.755C182.737 21.9079 182.618 22.0893 182.538 22.2889C182.457 22.4884 182.418 22.7019 182.421 22.917ZM183.701 24.0083H183.223V21.9306C183.486 21.8825 183.753 21.86 184.02 21.8634C184.271 21.8434 184.522 21.8974 184.742 22.0187C184.808 22.0743 184.86 22.1439 184.895 22.2224C184.93 22.3009 184.946 22.3862 184.944 22.4721C184.936 22.5873 184.891 22.6969 184.815 22.784C184.739 22.8712 184.637 22.9312 184.524 22.9547V22.9799C184.627 23.0226 184.716 23.0923 184.783 23.1817C184.849 23.2711 184.89 23.3769 184.902 23.4878C184.922 23.6687 184.973 23.8448 185.053 24.0083H184.537C184.457 23.8476 184.401 23.6767 184.369 23.5004C184.331 23.2737 184.205 23.173 183.949 23.173H183.718L183.701 24.0083ZM183.701 22.8288H183.932C184.197 22.8288 184.415 22.7407 184.415 22.5266C184.415 22.3126 184.272 22.2076 183.97 22.2076C183.88 22.2061 183.79 22.2145 183.701 22.2328V22.8288Z" fill="#090400"/>
</g>
<defs>
<clipPath id="clip0_41_563">
<rect width="207" height="67.7772" fill="white"/>
</clipPath>
</defs>
</svg>
