<svg width="25" height="29" viewBox="0 0 25 29" fill="none" xmlns="http://www.w3.org/2000/svg">
<path fill-rule="evenodd" clip-rule="evenodd" d="M5.57302 7.57284V7.39803C5.57302 4.23673 7.71329 1.47649 10.775 0.689199C11.9067 0.398197 13.0936 0.398197 14.2252 0.689199C17.2869 1.47649 19.4272 4.23674 19.4272 7.39803V7.57284H21.6163C22.4494 7.57284 23.1565 8.18386 23.2773 9.00818L23.5962 11.1847C24.2241 15.4699 24.2241 19.8238 23.5962 24.109C23.293 26.1785 21.6242 27.7783 19.5438 27.9941L18.6267 28.0892C14.5532 28.5116 10.447 28.5116 6.37345 28.0892L5.45635 27.9941C3.37598 27.7783 1.70723 26.1785 1.40401 24.109C0.776136 19.8238 0.776137 15.4699 1.40401 11.1847L1.72291 9.00818C1.84369 8.18386 2.55076 7.57284 3.38388 7.57284H5.57302ZM11.3198 2.80778C12.0941 2.60867 12.9061 2.60867 13.6805 2.80778C15.7753 3.34645 17.2397 5.23504 17.2397 7.39803V7.57284H7.76052V7.39803C7.76052 5.23504 9.22491 3.34645 11.3198 2.80778ZM5.57302 9.76034V13.0416C5.57302 13.6457 6.06271 14.1353 6.66677 14.1353C7.27083 14.1353 7.76052 13.6457 7.76052 13.0416V9.76034H17.2397V13.0416C17.2397 13.6457 17.7294 14.1353 18.3334 14.1353C18.9375 14.1353 19.4272 13.6457 19.4272 13.0416V9.76034H21.1766L21.4318 11.5018C22.0289 15.5768 22.0289 19.717 21.4318 23.7919C21.2736 24.8713 20.4033 25.7057 19.3182 25.8182L18.4011 25.9134C14.4776 26.3202 10.5226 26.3202 6.59909 25.9134L5.68199 25.8182C4.59693 25.7057 3.72655 24.8713 3.5684 23.7919C2.97134 19.717 2.97134 15.5767 3.5684 11.5018L3.82356 9.76034H5.57302Z" fill="black"/>
</svg>
