<?xml version="1.0" encoding="UTF-8" standalone="no" ?>
<!DOCTYPE svg PUBLIC "-//W3C//DTD SVG 1.1//EN" "http://www.w3.org/Graphics/SVG/1.1/DTD/svg11.dtd">
<svg xmlns="http://www.w3.org/2000/svg" xmlns:xlink="http://www.w3.org/1999/xlink" version="1.1" width="24" height="28" viewBox="0 0 24 28" xml:space="preserve">
<desc>Created with Fabric.js 3.6.3</desc>
<defs>
</defs>
<g transform="matrix(1 0 0 1 12.07 14.47)"  >
<path style="stroke: none; stroke-width: 1; stroke-dasharray: none; stroke-linecap: butt; stroke-dashoffset: 0; stroke-linejoin: miter; stroke-miterlimit: 4; fill: rgb(255,255,255); fill-rule: evenodd; opacity: 1;"  transform=" translate(-12.5, -14.44)" d="M 5.57302 7.57284 V 7.39803 C 5.57302 4.23673 7.71329 1.47649 10.775 0.689199 C 11.9067 0.398197 13.0936 0.398197 14.2252 0.689199 C 17.2869 1.47649 19.4272 4.23674 19.4272 7.39803 V 7.57284 H 21.6163 C 22.4494 7.57284 23.1565 8.18386 23.2773 9.00818 L 23.5962 11.1847 C 24.2241 15.4699 24.2241 19.8238 23.5962 24.109 C 23.293 26.1785 21.6242 27.7783 19.5438 27.9941 L 18.6267 28.0892 C 14.5532 28.5116 10.447 28.5116 6.37345 28.0892 L 5.45635 27.9941 C 3.37598 27.7783 1.70723 26.1785 1.40401 24.109 C 0.776136 19.8238 0.776137 15.4699 1.40401 11.1847 L 1.72291 9.00818 C 1.84369 8.18386 2.55076 7.57284 3.38388 7.57284 H 5.57302 Z M 11.3198 2.80778 C 12.0941 2.60867 12.9061 2.60867 13.6805 2.80778 C 15.7753 3.34645 17.2397 5.23504 17.2397 7.39803 V 7.57284 H 7.76052 V 7.39803 C 7.76052 5.23504 9.22491 3.34645 11.3198 2.80778 Z M 5.57302 9.76034 V 13.0416 C 5.57302 13.6457 6.06271 14.1353 6.66677 14.1353 C 7.27083 14.1353 7.76052 13.6457 7.76052 13.0416 V 9.76034 H 17.2397 V 13.0416 C 17.2397 13.6457 17.7294 14.1353 18.3334 14.1353 C 18.9375 14.1353 19.4272 13.6457 19.4272 13.0416 V 9.76034 H 21.1766 L 21.4318 11.5018 C 22.0289 15.5768 22.0289 19.717 21.4318 23.7919 C 21.2736 24.8713 20.4033 25.7057 19.3182 25.8182 L 18.4011 25.9134 C 14.4776 26.3202 10.5226 26.3202 6.59909 25.9134 L 5.68199 25.8182 C 4.59693 25.7057 3.72655 24.8713 3.5684 23.7919 C 2.97134 19.717 2.97134 15.5767 3.5684 11.5018 L 3.82356 9.76034 H 5.57302 Z" stroke-linecap="round" />
</g>
</svg>