<?xml version="1.0" encoding="UTF-8" standalone="no" ?>
<!DOCTYPE svg PUBLIC "-//W3C//DTD SVG 1.1//EN" "http://www.w3.org/Graphics/SVG/1.1/DTD/svg11.dtd">
<svg xmlns="http://www.w3.org/2000/svg" xmlns:xlink="http://www.w3.org/1999/xlink" version="1.1" width="17" height="17" viewBox="0 0 17 17" xml:space="preserve">
<desc>Created with Fabric.js 3.6.3</desc>
<defs>
</defs>
<g transform="matrix(1 0 0 1 8.8 8.8)"  >
<path style="stroke: none; stroke-width: 1; stroke-dasharray: none; stroke-linecap: butt; stroke-dashoffset: 0; stroke-linejoin: miter; stroke-miterlimit: 4; fill: rgb(255,255,255); fill-rule: evenodd; opacity: 1;"  transform=" translate(-9, -9)" d="M 11.1215 8.99996 L 16.8087 14.6872 C 17.0408 14.9192 17.1763 15.1401 17.246 15.37 C 17.3157 15.5999 17.3157 15.835 17.246 16.065 C 17.1763 16.2949 17.0408 16.5158 16.8087 16.7478 L 16.748 16.8085 C 16.516 17.0405 16.2951 17.1761 16.0652 17.2458 C 15.8353 17.3154 15.6002 17.3154 15.3702 17.2458 C 15.1403 17.1761 14.9194 17.0405 14.6874 16.8085 L 9.00021 11.1213 L 3.31299 16.8085 C 3.08097 17.0405 2.86009 17.1761 2.63018 17.2458 C 2.40026 17.3154 2.16513 17.3154 1.93521 17.2458 C 1.70529 17.1761 1.48442 17.0405 1.2524 16.8085 L 1.19167 16.7478 C 0.959648 16.5158 0.824101 16.2949 0.754414 16.065 C 0.684727 15.835 0.684727 15.5999 0.754414 15.37 C 0.824101 15.1401 0.959648 14.9192 1.19167 14.6872 L 6.87889 8.99996 L 1.19167 3.31274 C 0.959648 3.08072 0.824101 2.85985 0.754414 2.62993 C 0.684727 2.40001 0.684727 2.16488 0.754414 1.93497 C 0.824101 1.70505 0.959648 1.48417 1.19167 1.25216 L 1.2524 1.19142 C 1.48442 0.959404 1.70529 0.823856 1.93521 0.75417 C 2.16513 0.684483 2.40026 0.684483 2.63018 0.75417 C 2.86009 0.823856 3.08097 0.959404 3.31299 1.19142 L 9.00021 6.87864 L 14.6874 1.19142 C 14.9194 0.959404 15.1403 0.823856 15.3702 0.75417 C 15.6002 0.684483 15.8353 0.684483 16.0652 0.75417 C 16.2951 0.823856 16.516 0.959404 16.748 1.19142 L 16.8087 1.25216 C 17.0408 1.48417 17.1763 1.70505 17.246 1.93497 C 17.3157 2.16488 17.3157 2.40001 17.246 2.62993 C 17.1763 2.85985 17.0408 3.08072 16.8087 3.31274 L 11.1215 8.99996 Z" stroke-linecap="round" />
</g>
</svg>