<?xml version="1.0" encoding="UTF-8" standalone="no" ?>
<!DOCTYPE svg PUBLIC "-//W3C//DTD SVG 1.1//EN" "http://www.w3.org/Graphics/SVG/1.1/DTD/svg11.dtd">
<svg xmlns="http://www.w3.org/2000/svg" xmlns:xlink="http://www.w3.org/1999/xlink" version="1.1" width="29" height="29" viewBox="0 0 29 29" xml:space="preserve">
<desc>Created with Fabric.js 3.6.3</desc>
<defs>
</defs>
<g transform="matrix(1 0 0 1 14.81 14.72)"  >
<path style="stroke: none; stroke-width: 1; stroke-dasharray: none; stroke-linecap: butt; stroke-dashoffset: 0; stroke-linejoin: miter; stroke-miterlimit: 4; fill: rgb(0,0,0); fill-rule: evenodd; opacity: 1;"  transform=" translate(-8.43, -14.5)" d="M 6.29459 2.52371 C 7.73041 1.08789 9.67781 0.28125 11.7084 0.28125 H 15.6459 C 16.2499 0.28125 16.7396 0.770939 16.7396 1.375 V 6.625 C 16.7396 7.22906 16.2499 7.71875 15.6459 7.71875 H 11.7084 C 11.6504 7.71875 11.5947 7.7418 11.5537 7.78282 C 11.5127 7.82384 11.4896 7.87948 11.4896 7.9375 V 10.7812 H 15.6459 C 15.9827 10.7812 16.3007 10.9364 16.508 11.2019 C 16.7152 11.4674 16.7887 11.8135 16.707 12.1403 L 15.3945 17.3903 C 15.2727 17.8772 14.8353 18.2188 14.3334 18.2188 H 11.4896 V 27.625 C 11.4896 28.2291 10.9999 28.7188 10.3959 28.7188 H 5.14587 C 4.54181 28.7188 4.05212 28.2291 4.05212 27.625 V 18.2188 H 1.20837 C 0.604313 18.2188 0.114624 17.7291 0.114624 17.125 V 11.875 C 0.114624 11.2709 0.604313 10.7812 1.20837 10.7812 H 4.05212 V 7.9375 C 4.05212 5.90694 4.85876 3.95954 6.29459 2.52371 Z M 11.7084 2.46875 C 10.258 2.46875 8.86697 3.04492 7.84138 4.07051 C 6.81579 5.0961 6.23962 6.4871 6.23962 7.9375 V 11.875 C 6.23962 12.4791 5.74994 12.9688 5.14587 12.9688 H 2.30212 V 16.0312 H 5.14587 C 5.74994 16.0312 6.23962 16.5209 6.23962 17.125 V 26.5312 H 9.30212 V 17.125 C 9.30212 16.5209 9.79181 16.0312 10.3959 16.0312 H 13.4794 L 14.245 12.9688 H 10.3959 C 9.79181 12.9688 9.30212 12.4791 9.30212 11.875 V 7.9375 C 9.30212 7.29932 9.55564 6.68728 10.0069 6.23602 C 10.4582 5.78477 11.0702 5.53125 11.7084 5.53125 H 14.5521 V 2.46875 H 11.7084 Z" stroke-linecap="round" />
</g>
</svg>