<?xml version="1.0" encoding="UTF-8" standalone="no" ?>
<!DOCTYPE svg PUBLIC "-//W3C//DTD SVG 1.1//EN" "http://www.w3.org/Graphics/SVG/1.1/DTD/svg11.dtd">
<svg xmlns="http://www.w3.org/2000/svg" xmlns:xlink="http://www.w3.org/1999/xlink" version="1.1" width="361" height="166" viewBox="0 0 361 166" xml:space="preserve">
<desc>Created with Fabric.js 3.6.3</desc>
<defs>
</defs>
<g transform="matrix(1 0 0 1 181 83.16)" clip-path="url(#CLIPPATH_6)"  >
<clipPath id="CLIPPATH_6" >
	<rect transform="matrix(1 0 0 1 0 0)" clip-path="url(#undefined)" x="-181" y="-83.16" rx="0" ry="0" width="362" height="166.32" />
</clipPath>
<path style="stroke: rgb(255,255,255); stroke-width: 2.08; stroke-dasharray: none; stroke-linecap: butt; stroke-dashoffset: 0; stroke-linejoin: miter; stroke-miterlimit: 10; fill: none; fill-rule: nonzero; opacity: 1;"  transform=" translate(-720, -185.16)" d="M 893.446 109.546 H 546.545 V 260.774 H 893.446 V 109.546 Z" stroke-linecap="round" />
</g>
<g transform="matrix(1 0 0 1 181 83.16)" clip-path="url(#CLIPPATH_7)"  >
<clipPath id="CLIPPATH_7" >
	<rect transform="matrix(1 0 0 1 0 0)" clip-path="url(#undefined)" x="-181" y="-83.16" rx="0" ry="0" width="362" height="166.32" />
</clipPath>
<path style="stroke: rgb(255,255,255); stroke-width: 4.16; stroke-dasharray: none; stroke-linecap: butt; stroke-dashoffset: 0; stroke-linejoin: miter; stroke-miterlimit: 10; fill: none; fill-rule: nonzero; opacity: 1;"  transform=" translate(-720, -185.16)" d="M 898.915 104.077 H 541.077 V 266.235 H 898.915 V 104.077 Z" stroke-linecap="round" />
</g>
<g transform="matrix(1 0 0 1 53 61.18)" clip-path="url(#CLIPPATH_8)"  >
<clipPath id="CLIPPATH_8" >
	<rect transform="matrix(1 0 0 1 128.01 21.98)" clip-path="url(#undefined)" x="-181" y="-83.16" rx="0" ry="0" width="362" height="166.32" />
</clipPath>
<path style="stroke: none; stroke-width: 1; stroke-dasharray: none; stroke-linecap: butt; stroke-dashoffset: 0; stroke-linejoin: miter; stroke-miterlimit: 4; fill: rgb(255,255,255); fill-rule: nonzero; opacity: 1;"  transform=" translate(-591.99, -163.18)" d="M 608.621 156.589 C 608.621 160.699 607.953 163.415 603.072 170.19 L 591.409 186.404 H 588.744 L 599.85 170.99 C 597.416 172.282 594.72 173.004 591.967 173.104 C 582.248 173.104 575.363 165.764 575.363 156.611 C 575.363 147.457 582.248 139.956 591.967 139.956 C 601.685 139.956 608.621 147.369 608.621 156.589 Z M 606.419 156.589 C 606.47 154.679 606.131 152.779 605.423 151.004 C 604.715 149.23 603.654 147.618 602.303 146.267 C 600.952 144.916 599.34 143.854 597.566 143.147 C 595.791 142.439 593.891 142.1 591.981 142.15 C 583.76 142.15 577.602 148.316 577.602 156.589 C 577.555 158.49 577.894 160.381 578.6 162.147 C 579.306 163.913 580.363 165.517 581.708 166.862 C 583.053 168.206 584.657 169.264 586.423 169.97 C 588.189 170.676 590.08 171.015 591.981 170.968 C 600.239 170.968 606.405 164.809 606.405 156.589 H 606.419 Z" stroke-linecap="round" />
</g>
<g transform="matrix(1 0 0 1 89.03 61.95)" clip-path="url(#CLIPPATH_9)"  >
<clipPath id="CLIPPATH_9" >
	<rect transform="matrix(1 0 0 1 91.97 21.21)" clip-path="url(#undefined)" x="-181" y="-83.16" rx="0" ry="0" width="362" height="166.32" />
</clipPath>
<path style="stroke: none; stroke-width: 1; stroke-dasharray: none; stroke-linecap: butt; stroke-dashoffset: 0; stroke-linejoin: miter; stroke-miterlimit: 4; fill: rgb(255,255,255); fill-rule: nonzero; opacity: 1;"  transform=" translate(-628.03, -163.95)" d="M 644.661 170.527 C 644.661 179.739 637.776 187.182 628.058 187.182 C 618.34 187.182 611.396 179.739 611.396 170.527 C 611.396 166.417 612.064 163.694 616.952 156.919 L 628.609 140.712 H 631.28 L 620.175 156.126 C 622.608 154.833 625.304 154.111 628.058 154.012 C 637.776 154.034 644.661 161.367 644.661 170.527 Z M 642.459 170.527 C 642.506 168.627 642.165 166.736 641.459 164.97 C 640.753 163.205 639.695 161.601 638.351 160.257 C 637.006 158.912 635.403 157.855 633.637 157.148 C 631.872 156.442 629.981 156.102 628.08 156.148 C 619.808 156.148 613.642 162.307 613.642 170.527 C 613.592 172.437 613.931 174.337 614.638 176.112 C 615.346 177.886 616.408 179.498 617.758 180.849 C 619.109 182.2 620.721 183.262 622.496 183.969 C 624.27 184.677 626.17 185.016 628.08 184.966 C 636.272 184.966 642.459 178.8 642.459 170.527 Z" stroke-linecap="round" />
</g>
<g transform="matrix(1 0 0 1 133.17 61.54)" clip-path="url(#CLIPPATH_10)"  >
<clipPath id="CLIPPATH_10" >
	<rect transform="matrix(1 0 0 1 47.83 21.63)" clip-path="url(#undefined)" x="-181" y="-83.16" rx="0" ry="0" width="362" height="166.32" />
</clipPath>
<path style="stroke: none; stroke-width: 1; stroke-dasharray: none; stroke-linecap: butt; stroke-dashoffset: 0; stroke-linejoin: miter; stroke-miterlimit: 4; fill: rgb(255,255,255); fill-rule: nonzero; opacity: 1;"  transform=" translate(-672.17, -163.53)" d="M 656.317 140.712 H 658.607 L 685.817 182.294 V 140.653 H 688.019 V 186.404 H 685.912 L 658.541 144.565 V 186.404 H 656.339 L 656.317 140.712 Z" stroke-linecap="round" />
</g>
<g transform="matrix(1 0 0 1 183.31 61.51)" clip-path="url(#CLIPPATH_11)"  >
<clipPath id="CLIPPATH_11" >
	<rect transform="matrix(1 0 0 1 -2.31 21.66)" clip-path="url(#undefined)" x="-181" y="-83.16" rx="0" ry="0" width="362" height="166.32" />
</clipPath>
<path style="stroke: none; stroke-width: 1; stroke-dasharray: none; stroke-linecap: butt; stroke-dashoffset: 0; stroke-linejoin: miter; stroke-miterlimit: 4; fill: rgb(255,255,255); fill-rule: nonzero; opacity: 1;"  transform=" translate(-722.31, -163.5)" d="M 722.334 187.241 C 717.639 187.247 713.048 185.86 709.141 183.257 C 705.234 180.653 702.187 176.949 700.385 172.614 C 698.583 168.279 698.107 163.506 699.017 158.901 C 699.928 154.295 702.183 150.062 705.499 146.738 C 708.815 143.414 713.041 141.148 717.645 140.227 C 722.249 139.305 727.022 139.769 731.362 141.561 C 735.702 143.352 739.413 146.39 742.026 150.29 C 744.639 154.191 746.037 158.779 746.043 163.473 C 746.068 166.597 745.473 169.694 744.291 172.585 C 743.109 175.476 741.365 178.104 739.159 180.315 C 736.953 182.526 734.33 184.277 731.441 185.466 C 728.553 186.655 725.458 187.258 722.334 187.241 Z M 722.334 141.989 C 718.077 141.985 713.914 143.243 710.373 145.606 C 706.831 147.969 704.07 151.329 702.439 155.261 C 700.809 159.194 700.381 163.522 701.211 167.697 C 702.041 171.873 704.091 175.708 707.102 178.718 C 710.113 181.728 713.949 183.777 718.125 184.605 C 722.301 185.434 726.629 185.005 730.56 183.373 C 734.492 181.741 737.852 178.979 740.213 175.436 C 742.574 171.894 743.832 167.731 743.826 163.473 C 743.851 160.645 743.311 157.841 742.24 155.223 C 741.168 152.606 739.585 150.228 737.585 148.23 C 735.584 146.231 733.204 144.651 730.586 143.582 C 727.968 142.513 725.162 141.976 722.334 142.004 V 141.989 Z" stroke-linecap="round" />
</g>
<g transform="matrix(1 0 0 1 230.49 61.58)" clip-path="url(#CLIPPATH_12)"  >
<clipPath id="CLIPPATH_12" >
	<rect transform="matrix(1 0 0 1 -49.48 21.59)" clip-path="url(#undefined)" x="-181" y="-83.16" rx="0" ry="0" width="362" height="166.32" />
</clipPath>
<path style="stroke: none; stroke-width: 1; stroke-dasharray: none; stroke-linecap: butt; stroke-dashoffset: 0; stroke-linejoin: miter; stroke-miterlimit: 4; fill: rgb(255,255,255); fill-rule: nonzero; opacity: 1;"  transform=" translate(-769.48, -163.57)" d="M 772.732 171.746 L 781.893 186.426 H 779.287 L 770.479 172.436 C 768.495 172.903 766.461 173.127 764.423 173.104 H 758.595 V 186.485 H 756.393 V 140.653 H 764.467 C 777.738 140.653 782.568 148.426 782.568 156.867 C 782.561 163.195 779.72 169.162 772.732 171.746 Z M 764.46 170.858 C 774.846 170.858 780.344 165.47 780.344 156.867 C 780.344 147.868 774.619 142.877 764.46 142.877 H 758.632 V 170.858 H 764.46 Z" stroke-linecap="round" />
</g>
<g transform="matrix(1 0 0 1 261.84 61.51)" clip-path="url(#CLIPPATH_13)"  >
<clipPath id="CLIPPATH_13" >
	<rect transform="matrix(1 0 0 1 -80.84 21.65)" clip-path="url(#undefined)" x="-181" y="-83.16" rx="0" ry="0" width="362" height="166.32" />
</clipPath>
<path style="stroke: none; stroke-width: 1; stroke-dasharray: none; stroke-linecap: butt; stroke-dashoffset: 0; stroke-linejoin: miter; stroke-miterlimit: 4; fill: rgb(255,255,255); fill-rule: nonzero; opacity: 1;"  transform=" translate(-800.84, -163.51)" d="M 799.758 142.818 H 788.483 V 140.616 H 813.19 V 142.818 H 801.975 V 186.404 H 799.773 L 799.758 142.818 Z" stroke-linecap="round" />
</g>
<g transform="matrix(1 0 0 1 296.13 61.57)" clip-path="url(#CLIPPATH_14)"  >
<clipPath id="CLIPPATH_14" >
	<rect transform="matrix(1 0 0 1 -115.12 21.6)" clip-path="url(#undefined)" x="-181" y="-83.16" rx="0" ry="0" width="362" height="166.32" />
</clipPath>
<path style="stroke: none; stroke-width: 1; stroke-dasharray: none; stroke-linecap: butt; stroke-dashoffset: 0; stroke-linejoin: miter; stroke-miterlimit: 4; fill: rgb(255,255,255); fill-rule: nonzero; opacity: 1;"  transform=" translate(-835.12, -163.56)" d="M 822.63 140.712 H 824.832 V 161.418 H 850.207 V 140.712 H 852.409 V 186.404 H 850.207 V 163.65 H 824.854 V 186.404 H 822.652 V 163.914 V 163.481 H 817.837 V 161.448 H 822.652 V 161.059 V 140.712 H 822.63 Z" stroke-linecap="round" />
</g>
<g transform="matrix(1 0 0 1 321.83 42.44)" clip-path="url(#CLIPPATH_15)"  >
<clipPath id="CLIPPATH_15" >
	<rect transform="matrix(1 0 0 1 -140.82 40.73)" clip-path="url(#undefined)" x="-181" y="-83.16" rx="0" ry="0" width="362" height="166.32" />
</clipPath>
<path style="stroke: none; stroke-width: 1; stroke-dasharray: none; stroke-linecap: butt; stroke-dashoffset: 0; stroke-linejoin: miter; stroke-miterlimit: 4; fill: rgb(255,255,255); fill-rule: nonzero; opacity: 1;"  transform=" translate(-860.82, -144.43)" d="M 864.557 144.367 C 864.57 145.109 864.362 145.839 863.959 146.462 C 863.555 147.085 862.976 147.575 862.293 147.867 C 861.611 148.16 860.857 148.242 860.128 148.104 C 859.398 147.967 858.726 147.615 858.198 147.093 C 857.669 146.572 857.308 145.905 857.16 145.178 C 857.012 144.45 857.084 143.695 857.367 143.009 C 857.65 142.323 858.131 141.736 858.749 141.325 C 859.367 140.913 860.093 140.694 860.835 140.697 C 861.322 140.69 861.804 140.78 862.256 140.962 C 862.707 141.143 863.118 141.412 863.464 141.754 C 863.81 142.095 864.085 142.502 864.273 142.951 C 864.46 143.399 864.557 143.881 864.557 144.367 Z M 858.017 144.367 C 858.006 144.746 858.072 145.123 858.21 145.476 C 858.348 145.829 858.556 146.15 858.821 146.421 C 859.086 146.691 859.403 146.906 859.753 147.051 C 860.103 147.196 860.479 147.27 860.857 147.267 C 861.23 147.265 861.598 147.188 861.94 147.042 C 862.282 146.895 862.591 146.681 862.849 146.413 C 863.108 146.145 863.309 145.827 863.442 145.48 C 863.575 145.132 863.637 144.761 863.625 144.389 C 863.625 143.646 863.329 142.932 862.803 142.407 C 862.278 141.881 861.564 141.585 860.821 141.585 C 860.077 141.585 859.364 141.881 858.838 142.407 C 858.312 142.932 858.017 143.646 858.017 144.389 V 144.367 Z M 860.256 146.268 H 859.419 V 142.635 C 859.879 142.554 860.346 142.517 860.813 142.525 C 861.251 142.488 861.69 142.58 862.076 142.789 C 862.19 142.888 862.281 143.011 862.342 143.149 C 862.403 143.288 862.432 143.438 862.428 143.589 C 862.414 143.79 862.334 143.981 862.202 144.134 C 862.07 144.286 861.891 144.391 861.694 144.433 V 144.477 C 861.875 144.551 862.033 144.672 862.149 144.829 C 862.266 144.985 862.337 145.171 862.355 145.365 C 862.391 145.679 862.48 145.985 862.619 146.268 H 861.716 C 861.577 145.99 861.478 145.693 861.423 145.387 C 861.357 144.984 861.136 144.808 860.689 144.808 H 860.285 L 860.256 146.268 Z M 860.256 144.213 H 860.659 C 861.122 144.213 861.503 144.052 861.503 143.677 C 861.503 143.303 861.254 143.127 860.725 143.127 C 860.568 143.124 860.41 143.139 860.256 143.171 V 144.213 Z" stroke-linecap="round" />
</g>
<g transform="matrix(1 0 0 1 38.9 122.19)" clip-path="url(#CLIPPATH_16)"  >
<clipPath id="CLIPPATH_16" >
	<rect transform="matrix(1 0 0 1 142.1 -39.03)" clip-path="url(#undefined)" x="-181" y="-83.16" rx="0" ry="0" width="362" height="166.32" />
</clipPath>
<path style="stroke: none; stroke-width: 1; stroke-dasharray: none; stroke-linecap: butt; stroke-dashoffset: 0; stroke-linejoin: miter; stroke-miterlimit: 4; fill: rgb(255,255,255); fill-rule: nonzero; opacity: 1;"  transform=" translate(-577.9, -224.19)" d="M 575.414 230.327 C 575.886 230.589 576.415 230.731 576.955 230.738 C 577.504 230.758 578.044 230.598 578.493 230.283 C 578.942 229.968 579.276 229.514 579.444 228.991 C 579.607 228.505 579.679 227.992 579.656 227.479 V 216.344 H 580.941 V 227.479 C 580.957 228.094 580.88 228.708 580.713 229.3 C 580.471 230.103 579.973 230.805 579.294 231.298 C 578.615 231.791 577.794 232.048 576.955 232.03 C 576.222 232.029 575.5 231.845 574.856 231.494 L 575.414 230.327 Z" stroke-linecap="round" />
</g>
<g transform="matrix(1 0 0 1 52.39 122.19)" clip-path="url(#CLIPPATH_17)"  >
<clipPath id="CLIPPATH_17" >
	<rect transform="matrix(1 0 0 1 128.62 -39.02)" clip-path="url(#undefined)" x="-181" y="-83.16" rx="0" ry="0" width="362" height="166.32" />
</clipPath>
<path style="stroke: none; stroke-width: 1; stroke-dasharray: none; stroke-linecap: butt; stroke-dashoffset: 0; stroke-linejoin: miter; stroke-miterlimit: 4; fill: rgb(255,255,255); fill-rule: nonzero; opacity: 1;"  transform=" translate(-591.38, -224.18)" d="M 591.305 232.03 C 589.755 232.016 588.244 231.543 586.963 230.67 C 585.682 229.798 584.688 228.566 584.106 227.129 C 583.524 225.692 583.381 224.116 583.694 222.598 C 584.008 221.08 584.764 219.688 585.867 218.599 C 586.97 217.511 588.371 216.773 589.893 216.479 C 591.415 216.186 592.99 216.35 594.419 216.95 C 595.848 217.551 597.067 218.561 597.922 219.853 C 598.778 221.146 599.231 222.663 599.225 224.213 C 599.238 225.252 599.04 226.282 598.645 227.243 C 598.25 228.203 597.666 229.075 596.926 229.804 C 596.187 230.534 595.308 231.107 594.342 231.49 C 593.377 231.872 592.344 232.056 591.305 232.03 Z M 591.305 217.614 C 589.999 217.614 588.722 218.002 587.635 218.728 C 586.549 219.453 585.702 220.485 585.202 221.692 C 584.702 222.899 584.571 224.228 584.826 225.509 C 585.081 226.791 585.71 227.968 586.634 228.892 C 587.558 229.815 588.735 230.445 590.017 230.7 C 591.298 230.954 592.626 230.824 593.833 230.324 C 595.041 229.824 596.072 228.977 596.798 227.891 C 597.524 226.804 597.911 225.527 597.911 224.22 C 597.937 223.346 597.783 222.475 597.46 221.662 C 597.137 220.848 596.652 220.109 596.033 219.49 C 595.415 218.871 594.677 218.385 593.864 218.061 C 593.051 217.737 592.18 217.583 591.305 217.607 V 217.614 Z" stroke-linecap="round" />
</g>
<g transform="matrix(1 0 0 1 68.62 122.2)" clip-path="url(#CLIPPATH_18)"  >
<clipPath id="CLIPPATH_18" >
	<rect transform="matrix(1 0 0 1 112.38 -39.03)" clip-path="url(#undefined)" x="-181" y="-83.16" rx="0" ry="0" width="362" height="166.32" />
</clipPath>
<path style="stroke: none; stroke-width: 1; stroke-dasharray: none; stroke-linecap: butt; stroke-dashoffset: 0; stroke-linejoin: miter; stroke-miterlimit: 4; fill: rgb(255,255,255); fill-rule: nonzero; opacity: 1;"  transform=" translate(-607.62, -224.19)" d="M 602.962 216.344 V 225.637 C 602.924 226.357 603.016 227.078 603.234 227.766 C 603.549 228.664 604.141 229.439 604.924 229.98 C 605.708 230.521 606.642 230.799 607.594 230.775 C 608.552 230.802 609.493 230.525 610.284 229.985 C 611.075 229.444 611.675 228.668 611.998 227.766 C 612.212 227.078 612.302 226.357 612.262 225.637 V 216.344 H 613.562 V 225.681 C 613.61 226.667 613.443 227.652 613.07 228.566 C 612.585 229.605 611.813 230.484 610.846 231.101 C 609.879 231.717 608.756 232.044 607.609 232.044 C 606.462 232.044 605.339 231.717 604.371 231.101 C 603.404 230.484 602.633 229.605 602.148 228.566 C 601.785 227.649 601.622 226.666 601.671 225.681 V 216.359 L 602.962 216.344 Z" stroke-linecap="round" />
</g>
<g transform="matrix(1 0 0 1 83.68 122.18)" clip-path="url(#CLIPPATH_19)"  >
<clipPath id="CLIPPATH_19" >
	<rect transform="matrix(1 0 0 1 97.32 -39.01)" clip-path="url(#undefined)" x="-181" y="-83.16" rx="0" ry="0" width="362" height="166.32" />
</clipPath>
<path style="stroke: none; stroke-width: 1; stroke-dasharray: none; stroke-linecap: butt; stroke-dashoffset: 0; stroke-linejoin: miter; stroke-miterlimit: 4; fill: rgb(255,255,255); fill-rule: nonzero; opacity: 1;"  transform=" translate(-622.68, -224.17)" d="M 622.552 224.661 H 618.038 V 232.001 H 616.768 V 216.344 H 623.374 C 624.066 216.32 624.757 216.43 625.407 216.667 C 626.176 216.967 626.834 217.495 627.293 218.18 C 627.752 218.865 627.991 219.674 627.976 220.499 C 627.986 221.391 627.705 222.261 627.176 222.98 C 626.727 223.589 626.113 224.057 625.407 224.33 C 624.958 224.52 624.478 224.63 623.991 224.653 L 628.593 231.993 H 627.044 L 622.552 224.661 Z M 623.286 223.435 C 623.856 223.464 624.425 223.376 624.96 223.178 C 625.464 222.941 625.891 222.565 626.189 222.095 C 626.488 221.624 626.647 221.078 626.647 220.521 C 626.647 219.963 626.488 219.418 626.189 218.947 C 625.891 218.477 625.464 218.101 624.96 217.864 C 624.425 217.665 623.855 217.58 623.286 217.614 H 618.038 V 223.435 H 623.286 Z" stroke-linecap="round" />
</g>
<g transform="matrix(1 0 0 1 98.44 122.19)" clip-path="url(#CLIPPATH_20)"  >
<clipPath id="CLIPPATH_20" >
	<rect transform="matrix(1 0 0 1 82.56 -39.03)" clip-path="url(#undefined)" x="-181" y="-83.16" rx="0" ry="0" width="362" height="166.32" />
</clipPath>
<path style="stroke: none; stroke-width: 1; stroke-dasharray: none; stroke-linecap: butt; stroke-dashoffset: 0; stroke-linejoin: miter; stroke-miterlimit: 4; fill: rgb(255,255,255); fill-rule: nonzero; opacity: 1;"  transform=" translate(-637.44, -224.19)" d="M 631.031 232.03 V 216.344 H 631.692 L 642.541 229.351 V 216.344 H 643.84 V 232.03 H 643.194 L 632.33 219.009 V 232.03 H 631.031 Z" stroke-linecap="round" />
</g>
<g transform="matrix(1 0 0 1 113.12 122.2)" clip-path="url(#CLIPPATH_21)"  >
<clipPath id="CLIPPATH_21" >
	<rect transform="matrix(1 0 0 1 67.89 -39.03)" clip-path="url(#undefined)" x="-181" y="-83.16" rx="0" ry="0" width="362" height="166.32" />
</clipPath>
<path style="stroke: none; stroke-width: 1; stroke-dasharray: none; stroke-linecap: butt; stroke-dashoffset: 0; stroke-linejoin: miter; stroke-miterlimit: 4; fill: rgb(255,255,255); fill-rule: nonzero; opacity: 1;"  transform=" translate(-652.11, -224.19)" d="M 657.139 216.344 V 217.607 H 648.382 V 222.818 H 655.363 V 224.044 H 648.382 V 230.819 H 657.139 V 232.045 H 647.09 V 216.344 H 657.139 Z" stroke-linecap="round" />
</g>
<g transform="matrix(1 0 0 1 125.76 122.19)" clip-path="url(#CLIPPATH_22)"  >
<clipPath id="CLIPPATH_22" >
	<rect transform="matrix(1 0 0 1 55.24 -39.03)" clip-path="url(#undefined)" x="-181" y="-83.16" rx="0" ry="0" width="362" height="166.32" />
</clipPath>
<path style="stroke: none; stroke-width: 1; stroke-dasharray: none; stroke-linecap: butt; stroke-dashoffset: 0; stroke-linejoin: miter; stroke-miterlimit: 4; fill: rgb(255,255,255); fill-rule: nonzero; opacity: 1;"  transform=" translate(-664.76, -224.19)" d="M 664.09 232.03 V 225.336 L 658.526 216.344 H 660.075 L 664.765 224.008 L 669.456 216.344 H 670.99 L 665.404 225.336 V 232.03 H 664.09 Z" stroke-linecap="round" />
</g>
<g transform="matrix(1 0 0 1 145.22 122.2)" clip-path="url(#CLIPPATH_23)"  >
<clipPath id="CLIPPATH_23" >
	<rect transform="matrix(1 0 0 1 35.78 -39.03)" clip-path="url(#undefined)" x="-181" y="-83.16" rx="0" ry="0" width="362" height="166.32" />
</clipPath>
<path style="stroke: none; stroke-width: 1; stroke-dasharray: none; stroke-linecap: butt; stroke-dashoffset: 0; stroke-linejoin: miter; stroke-miterlimit: 4; fill: rgb(255,255,255); fill-rule: nonzero; opacity: 1;"  transform=" translate(-684.22, -224.19)" d="M 690.486 216.344 V 217.607 H 684.842 V 232.038 H 683.564 V 217.607 H 677.949 V 216.352 L 690.486 216.344 Z" stroke-linecap="round" />
</g>
<g transform="matrix(1 0 0 1 159.85 122.19)" clip-path="url(#CLIPPATH_24)"  >
<clipPath id="CLIPPATH_24" >
	<rect transform="matrix(1 0 0 1 21.15 -39.03)" clip-path="url(#undefined)" x="-181" y="-83.16" rx="0" ry="0" width="362" height="166.32" />
</clipPath>
<path style="stroke: none; stroke-width: 1; stroke-dasharray: none; stroke-linecap: butt; stroke-dashoffset: 0; stroke-linejoin: miter; stroke-miterlimit: 4; fill: rgb(255,255,255); fill-rule: nonzero; opacity: 1;"  transform=" translate(-698.85, -224.19)" d="M 704.893 216.344 V 232.03 H 703.587 V 224.081 H 694.103 V 232.03 H 692.804 V 216.344 H 694.103 V 222.833 H 703.587 V 216.344 H 704.893 Z" stroke-linecap="round" />
</g>
<g transform="matrix(1 0 0 1 175.06 122.18)" clip-path="url(#CLIPPATH_25)"  >
<clipPath id="CLIPPATH_25" >
	<rect transform="matrix(1 0 0 1 5.95 -39.01)" clip-path="url(#undefined)" x="-181" y="-83.16" rx="0" ry="0" width="362" height="166.32" />
</clipPath>
<path style="stroke: none; stroke-width: 1; stroke-dasharray: none; stroke-linecap: butt; stroke-dashoffset: 0; stroke-linejoin: miter; stroke-miterlimit: 4; fill: rgb(255,255,255); fill-rule: nonzero; opacity: 1;"  transform=" translate(-714.05, -224.17)" d="M 713.952 224.661 H 709.437 V 232.001 H 708.146 V 216.344 H 714.752 C 715.444 216.32 716.134 216.43 716.785 216.667 C 717.553 216.967 718.211 217.495 718.671 218.18 C 719.13 218.865 719.368 219.674 719.354 220.499 C 719.363 221.391 719.083 222.261 718.554 222.98 C 718.104 223.589 717.491 224.057 716.785 224.33 C 716.332 224.519 715.851 224.629 715.361 224.653 L 719.963 231.993 H 718.436 L 713.952 224.661 Z M 714.686 223.435 C 715.253 223.463 715.82 223.376 716.352 223.178 C 716.869 222.952 717.309 222.581 717.618 222.109 C 717.926 221.637 718.091 221.085 718.091 220.521 C 718.091 219.957 717.926 219.405 717.618 218.933 C 717.309 218.461 716.869 218.089 716.352 217.864 C 715.82 217.666 715.252 217.581 714.686 217.614 H 709.437 V 223.435 H 714.686 Z" stroke-linecap="round" />
</g>
<g transform="matrix(1 0 0 1 190.59 122.19)" clip-path="url(#CLIPPATH_26)"  >
<clipPath id="CLIPPATH_26" >
	<rect transform="matrix(1 0 0 1 -9.58 -39.03)" clip-path="url(#undefined)" x="-181" y="-83.16" rx="0" ry="0" width="362" height="166.32" />
</clipPath>
<path style="stroke: none; stroke-width: 1; stroke-dasharray: none; stroke-linecap: butt; stroke-dashoffset: 0; stroke-linejoin: miter; stroke-miterlimit: 4; fill: rgb(255,255,255); fill-rule: nonzero; opacity: 1;"  transform=" translate(-729.58, -224.19)" d="M 729.498 232.03 C 727.948 232.014 726.438 231.54 725.158 230.667 C 723.877 229.794 722.884 228.561 722.304 227.124 C 721.723 225.687 721.581 224.111 721.895 222.593 C 722.209 221.076 722.966 219.685 724.069 218.597 C 725.173 217.509 726.573 216.772 728.095 216.479 C 729.617 216.186 731.191 216.35 732.62 216.951 C 734.049 217.551 735.267 218.562 736.122 219.854 C 736.977 221.147 737.431 222.663 737.425 224.213 C 737.437 225.252 737.24 226.283 736.844 227.245 C 736.449 228.206 735.863 229.077 735.123 229.807 C 734.383 230.537 733.504 231.11 732.537 231.492 C 731.57 231.874 730.537 232.057 729.498 232.03 Z M 729.498 217.614 C 728.191 217.614 726.914 218.002 725.828 218.728 C 724.741 219.453 723.894 220.485 723.394 221.692 C 722.894 222.899 722.764 224.228 723.019 225.509 C 723.273 226.791 723.903 227.968 724.827 228.892 C 725.75 229.815 726.927 230.445 728.209 230.699 C 729.49 230.954 730.819 230.824 732.026 230.324 C 733.233 229.824 734.265 228.977 734.991 227.89 C 735.716 226.804 736.104 225.527 736.104 224.22 C 736.128 223.346 735.974 222.476 735.651 221.663 C 735.327 220.85 734.842 220.111 734.223 219.493 C 733.605 218.874 732.867 218.387 732.055 218.063 C 731.242 217.739 730.372 217.584 729.498 217.607 V 217.614 Z" stroke-linecap="round" />
</g>
<g transform="matrix(1 0 0 1 206.8 122.2)" clip-path="url(#CLIPPATH_27)"  >
<clipPath id="CLIPPATH_27" >
	<rect transform="matrix(1 0 0 1 -25.8 -39.03)" clip-path="url(#undefined)" x="-181" y="-83.16" rx="0" ry="0" width="362" height="166.32" />
</clipPath>
<path style="stroke: none; stroke-width: 1; stroke-dasharray: none; stroke-linecap: butt; stroke-dashoffset: 0; stroke-linejoin: miter; stroke-miterlimit: 4; fill: rgb(255,255,255); fill-rule: nonzero; opacity: 1;"  transform=" translate(-745.8, -224.19)" d="M 741.155 216.344 V 225.637 C 741.117 226.357 741.209 227.078 741.426 227.766 C 741.766 228.651 742.367 229.412 743.149 229.949 C 743.93 230.487 744.856 230.774 745.805 230.774 C 746.753 230.774 747.679 230.487 748.461 229.949 C 749.242 229.412 749.843 228.651 750.183 227.766 C 750.397 227.078 750.487 226.357 750.447 225.637 V 216.344 H 751.746 V 225.681 C 751.795 226.667 751.627 227.652 751.255 228.566 C 750.77 229.605 749.998 230.484 749.031 231.101 C 748.064 231.717 746.941 232.044 745.794 232.044 C 744.647 232.044 743.524 231.717 742.556 231.101 C 741.589 230.484 740.818 229.605 740.333 228.566 C 739.973 227.648 739.81 226.665 739.855 225.681 V 216.359 L 741.155 216.344 Z" stroke-linecap="round" />
</g>
<g transform="matrix(1 0 0 1 223.06 122.23)" clip-path="url(#CLIPPATH_28)"  >
<clipPath id="CLIPPATH_28" >
	<rect transform="matrix(1 0 0 1 -42.05 -39.06)" clip-path="url(#undefined)" x="-181" y="-83.16" rx="0" ry="0" width="362" height="166.32" />
</clipPath>
<path style="stroke: none; stroke-width: 1; stroke-dasharray: none; stroke-linecap: butt; stroke-dashoffset: 0; stroke-linejoin: miter; stroke-miterlimit: 4; fill: rgb(255,255,255); fill-rule: nonzero; opacity: 1;"  transform=" translate(-762.05, -224.22)" d="M 767.036 219.684 C 766.404 219.013 765.639 218.482 764.789 218.124 C 763.94 217.766 763.025 217.59 762.103 217.607 C 760.788 217.59 759.497 217.966 758.396 218.686 C 757.296 219.407 756.436 220.44 755.926 221.653 C 755.416 222.866 755.28 224.203 755.535 225.494 C 755.791 226.784 756.425 227.969 757.358 228.897 C 758.291 229.825 759.479 230.453 760.771 230.7 C 762.063 230.948 763.4 230.805 764.61 230.288 C 765.82 229.772 766.848 228.906 767.563 227.801 C 768.277 226.696 768.646 225.404 768.621 224.088 H 761.905 V 222.826 H 769.817 C 769.888 223.273 769.925 223.724 769.928 224.176 C 769.936 225.738 769.48 227.267 768.618 228.569 C 767.756 229.871 766.526 230.888 765.084 231.489 C 763.643 232.09 762.055 232.25 760.523 231.947 C 758.991 231.643 757.584 230.892 756.48 229.787 C 755.376 228.682 754.626 227.274 754.324 225.742 C 754.022 224.209 754.183 222.622 754.786 221.181 C 755.389 219.74 756.406 218.511 757.709 217.65 C 759.012 216.789 760.541 216.334 762.103 216.345 C 763.186 216.325 764.262 216.529 765.262 216.945 C 766.262 217.36 767.166 217.978 767.916 218.759 L 767.036 219.684 Z" stroke-linecap="round" />
</g>
<g transform="matrix(1 0 0 1 239.41 122.19)" clip-path="url(#CLIPPATH_29)"  >
<clipPath id="CLIPPATH_29" >
	<rect transform="matrix(1 0 0 1 -58.41 -39.03)" clip-path="url(#undefined)" x="-181" y="-83.16" rx="0" ry="0" width="362" height="166.32" />
</clipPath>
<path style="stroke: none; stroke-width: 1; stroke-dasharray: none; stroke-linecap: butt; stroke-dashoffset: 0; stroke-linejoin: miter; stroke-miterlimit: 4; fill: rgb(255,255,255); fill-rule: nonzero; opacity: 1;"  transform=" translate(-778.41, -224.19)" d="M 784.446 216.344 V 232.03 H 783.139 V 224.081 H 773.663 V 232.03 H 772.378 V 216.344 H 773.685 V 222.833 H 783.161 V 216.344 H 784.446 Z" stroke-linecap="round" />
</g>
<g transform="matrix(1 0 0 1 259.69 122.22)" clip-path="url(#CLIPPATH_30)"  >
<clipPath id="CLIPPATH_30" >
	<rect transform="matrix(1 0 0 1 -78.69 -39.05)" clip-path="url(#undefined)" x="-181" y="-83.16" rx="0" ry="0" width="362" height="166.32" />
</clipPath>
<path style="stroke: none; stroke-width: 1; stroke-dasharray: none; stroke-linecap: butt; stroke-dashoffset: 0; stroke-linejoin: miter; stroke-miterlimit: 4; fill: rgb(255,255,255); fill-rule: nonzero; opacity: 1;"  transform=" translate(-798.69, -224.21)" d="M 793.797 228.162 C 794.437 228.961 795.241 229.612 796.156 230.07 C 797.071 230.529 798.074 230.784 799.097 230.819 C 801.776 230.819 803.207 229.182 803.207 227.399 C 803.207 225.197 801.005 224.602 798.641 224.11 C 796.138 223.596 793.371 223.061 793.371 220.293 C 793.371 218.091 795.25 216.388 798.318 216.381 C 799.319 216.397 800.305 216.615 801.218 217.022 C 802.132 217.43 802.953 218.018 803.633 218.752 L 802.737 219.625 C 802.177 218.999 801.492 218.495 800.726 218.148 C 799.96 217.8 799.13 217.616 798.289 217.607 C 795.94 217.607 794.663 218.84 794.663 220.257 C 794.663 221.93 796.395 222.327 799.03 222.848 C 801.152 223.281 804.506 223.978 804.506 227.428 C 804.506 229.997 802.348 232.045 799.097 232.045 C 797.904 232.019 796.732 231.738 795.657 231.221 C 794.582 230.705 793.63 229.965 792.865 229.05 L 793.797 228.162 Z" stroke-linecap="round" />
</g>
<g transform="matrix(1 0 0 1 275.07 122.2)" clip-path="url(#CLIPPATH_31)"  >
<clipPath id="CLIPPATH_31" >
	<rect transform="matrix(1 0 0 1 -94.06 -39.04)" clip-path="url(#undefined)" x="-181" y="-83.16" rx="0" ry="0" width="362" height="166.32" />
</clipPath>
<path style="stroke: none; stroke-width: 1; stroke-dasharray: none; stroke-linecap: butt; stroke-dashoffset: 0; stroke-linejoin: miter; stroke-miterlimit: 4; fill: rgb(255,255,255); fill-rule: nonzero; opacity: 1;"  transform=" translate(-814.06, -224.2)" d="M 820.493 222.158 C 820.019 220.653 819.022 219.367 817.682 218.534 C 816.342 217.7 814.748 217.374 813.188 217.614 C 811.629 217.854 810.206 218.644 809.179 219.842 C 808.151 221.039 807.587 222.565 807.587 224.143 C 807.587 225.721 808.151 227.247 809.179 228.445 C 810.206 229.642 811.629 230.433 813.188 230.672 C 814.748 230.912 816.342 230.586 817.682 229.753 C 819.022 228.919 820.019 227.634 820.493 226.129 L 821.741 226.518 C 821.188 228.308 820.013 229.841 818.428 230.84 C 816.844 231.84 814.954 232.24 813.1 231.969 C 811.247 231.697 809.551 230.772 808.319 229.36 C 807.088 227.949 806.401 226.143 806.384 224.27 C 806.367 222.396 807.02 220.579 808.225 219.144 C 809.43 217.71 811.109 216.754 812.957 216.449 C 814.806 216.143 816.702 216.508 818.305 217.479 C 819.908 218.449 821.111 219.96 821.697 221.739 L 820.493 222.158 Z" stroke-linecap="round" />
</g>
<g transform="matrix(1 0 0 1 290.22 122.2)" clip-path="url(#CLIPPATH_32)"  >
<clipPath id="CLIPPATH_32" >
	<rect transform="matrix(1 0 0 1 -109.22 -39.03)" clip-path="url(#undefined)" x="-181" y="-83.16" rx="0" ry="0" width="362" height="166.32" />
</clipPath>
<path style="stroke: none; stroke-width: 1; stroke-dasharray: none; stroke-linecap: butt; stroke-dashoffset: 0; stroke-linejoin: miter; stroke-miterlimit: 4; fill: rgb(255,255,255); fill-rule: nonzero; opacity: 1;"  transform=" translate(-829.22, -224.19)" d="M 834.241 216.344 V 217.607 H 825.484 V 222.818 H 832.465 V 224.044 H 825.484 V 230.819 H 834.241 V 232.045 H 824.192 V 216.344 H 834.241 Z" stroke-linecap="round" />
</g>
<g transform="matrix(1 0 0 1 305.25 123.19)" clip-path="url(#CLIPPATH_33)"  >
<clipPath id="CLIPPATH_33" >
	<rect transform="matrix(1 0 0 1 -123.24 -39.03)" clip-path="url(#undefined)" x="-181" y="-83.16" rx="0" ry="0" width="362" height="166.32" />
</clipPath>
<path style="stroke: none; stroke-width: 1; stroke-dasharray: none; stroke-linecap: butt; stroke-dashoffset: 0; stroke-linejoin: miter; stroke-miterlimit: 4; fill: rgb(255,255,255); fill-rule: nonzero; opacity: 1;"  transform=" translate(-843.24, -224.19)" d="M 836.833 232.03 V 216.344 H 837.5 L 848.349 229.351 V 216.344 H 849.648 V 232.03 H 848.988 L 838.139 219.009 V 232.03 H 836.833 Z" stroke-linecap="round" />
</g>
<g transform="matrix(1 0 0 1 319.25 122.2)" clip-path="url(#CLIPPATH_34)"  >
<clipPath id="CLIPPATH_34" >
	<rect transform="matrix(1 0 0 1 -138.25 -39.03)" clip-path="url(#undefined)" x="-181" y="-83.16" rx="0" ry="0" width="362" height="166.32" />
</clipPath>
<path style="stroke: none; stroke-width: 1; stroke-dasharray: none; stroke-linecap: butt; stroke-dashoffset: 0; stroke-linejoin: miter; stroke-miterlimit: 4; fill: rgb(255,255,255); fill-rule: nonzero; opacity: 1;"  transform=" translate(-858.25, -224.19)" d="M 864.528 216.344 V 217.607 H 858.89 V 232.038 H 857.584 V 217.607 H 851.969 V 216.352 L 864.528 216.344 Z" stroke-linecap="round" />
</g>
</svg>