<svg width="29" height="29" viewBox="0 0 29 29" fill="none" xmlns="http://www.w3.org/2000/svg">
<path d="M20.3334 7.20814C20.3334 6.40272 20.9863 5.7498 21.7917 5.7498C22.5971 5.7498 23.25 6.40272 23.25 7.20814C23.25 8.01355 22.5971 8.66647 21.7917 8.66647C20.9863 8.66647 20.3334 8.01355 20.3334 7.20814Z" fill="black"/>
<path fill-rule="evenodd" clip-rule="evenodd" d="M14.5 7.57272C10.6743 7.57272 7.57296 10.6741 7.57296 14.4998C7.57296 18.3255 10.6743 21.4269 14.5 21.4269C18.3258 21.4269 21.4271 18.3255 21.4271 14.4998C21.4271 10.6741 18.3258 7.57272 14.5 7.57272ZM9.76046 14.4998C9.76046 11.8822 11.8824 9.76022 14.5 9.76022C17.1176 9.76022 19.2396 11.8822 19.2396 14.4998C19.2396 17.1174 17.1176 19.2394 14.5 19.2394C11.8824 19.2394 9.76046 17.1174 9.76046 14.4998Z" fill="black"/>
<path fill-rule="evenodd" clip-rule="evenodd" d="M22.1683 1.13128C17.1129 0.566265 11.8872 0.566265 6.83179 1.13128C3.89754 1.45923 1.52872 3.7707 1.18375 6.72022C0.579213 11.889 0.579213 17.1106 1.18375 22.2794C1.52872 25.2289 3.89754 27.5404 6.83179 27.8683C11.8872 28.4333 17.1129 28.4333 22.1683 27.8683C25.1026 27.5404 27.4714 25.2289 27.8164 22.2794C28.4209 17.1106 28.4209 11.889 27.8164 6.72022C27.4714 3.7707 25.1026 1.45923 22.1683 1.13128ZM7.07476 3.30525C11.9687 2.75828 17.0314 2.75828 21.9254 3.30525C23.8651 3.52204 25.4189 5.05273 25.6437 6.97434C26.2285 11.9743 26.2285 17.0253 25.6437 22.0253C25.4189 23.9469 23.8651 25.4776 21.9254 25.6944C17.0314 26.2413 11.9687 26.2413 7.07476 25.6944C5.13502 25.4776 3.58119 23.9469 3.35644 22.0253C2.77165 17.0253 2.77165 11.9743 3.35644 6.97434C3.58119 5.05273 5.13502 3.52204 7.07476 3.30525Z" fill="black"/>
</svg>
