<svg width="29" height="29" viewBox="0 0 29 29" fill="none" xmlns="http://www.w3.org/2000/svg">
<path fill-rule="evenodd" clip-rule="evenodd" d="M14.5 0.28125C6.6472 0.28125 0.28125 6.6472 0.28125 14.5C0.28125 22.3528 6.6472 28.7188 14.5 28.7188C22.3528 28.7188 28.7188 22.3528 28.7188 14.5C28.7188 6.6472 22.3528 0.28125 14.5 0.28125ZM2.46875 14.5C2.46875 7.85532 7.85532 2.46875 14.5 2.46875C21.1447 2.46875 26.5312 7.85532 26.5312 14.5C26.5312 21.1447 21.1447 26.5312 14.5 26.5312C13.2498 26.5312 12.0441 26.3406 10.9105 25.9867C11.5268 25.019 12.017 23.9763 12.3689 22.8841L13.1223 20.0007C13.4335 20.4448 13.8508 20.8042 14.3362 21.0461C14.8216 21.2881 15.3597 21.4049 15.9018 21.3861C19.5991 21.3861 22.1967 18.0264 22.1967 13.8529C22.1967 9.84382 18.9237 6.84786 14.7242 6.84786C9.49421 6.84786 6.71472 10.3634 6.71472 14.1819C6.71472 15.9656 7.65853 18.1736 9.17383 18.8837C9.39896 18.9876 9.54616 18.8837 9.5808 18.7192C9.61541 18.5547 9.823 17.7244 9.91833 17.3431C9.93328 17.2826 9.93337 17.2188 9.91828 17.1584C9.90318 17.0981 9.87353 17.0423 9.8319 16.996C9.25944 16.1896 8.95639 15.2228 8.96602 14.2339C8.96302 13.524 9.1041 12.8208 9.38073 12.1671C9.65735 11.5133 10.0638 10.9224 10.5754 10.4302C11.087 9.93806 11.6931 9.55482 12.3571 9.3037C13.0211 9.05259 13.7292 8.93882 14.4384 8.96928C15.1027 8.93042 15.7679 9.03046 16.3913 9.26301C17.0148 9.49555 17.583 9.85551 18.0596 10.3199C18.5363 10.7843 18.9108 11.3429 19.1595 11.9602C19.4082 12.5774 19.5254 13.2397 19.5038 13.9048C19.5038 17.1779 17.8413 19.4552 15.6939 19.4552C15.4165 19.4765 15.1381 19.4306 14.8821 19.3215C14.6262 19.2124 14.4003 19.0432 14.2236 18.8283C14.0469 18.6133 13.9246 18.359 13.8671 18.0868C13.8095 17.8146 13.8184 17.5325 13.8929 17.2645C14.016 16.7537 14.1784 16.2277 14.3367 15.7151C14.6238 14.7851 14.8973 13.8993 14.8973 13.2294C14.9273 13.0119 14.9099 12.7904 14.8463 12.5802C14.7827 12.3699 14.6744 12.1759 14.5289 12.0115C14.3833 11.847 14.2039 11.7159 14.003 11.6272C13.802 11.5386 13.5843 11.4944 13.3647 11.4977C12.1525 11.4977 11.174 12.7619 11.174 14.4417C11.165 15.0353 11.277 15.6245 11.5031 16.1734L10.0744 22.2346C9.89933 23.38 9.89895 24.5453 10.0732 25.6907C9.12447 25.3151 8.23488 24.8223 7.42228 24.2302C5.99736 23.1893 4.80671 21.8424 3.94592 20.274C3.60729 19.657 3.32497 19.0154 3.1002 18.3567C2.69075 17.146 2.46875 15.8489 2.46875 14.5Z" fill="black"/>
</svg>
