<svg width="27" height="27" viewBox="0 0 27 27" fill="none" xmlns="http://www.w3.org/2000/svg">
<path fill-rule="evenodd" clip-rule="evenodd" d="M16.9785 18.5252C13.1135 21.6208 7.45597 21.3771 3.87316 17.7943C0.0289344 13.9501 0.0289344 7.71738 3.87316 3.87316C7.71738 0.0289341 13.9501 0.0289348 17.7943 3.87316C21.3771 7.45596 21.6208 13.1135 18.5252 16.9784L26.0439 24.4971C26.471 24.9242 26.471 25.6167 26.0439 26.0439C25.6167 26.471 24.9242 26.471 24.4971 26.0439L16.9785 18.5252ZM5.41995 16.2475C2.43 13.2576 2.43 8.40991 5.41995 5.41995C8.40991 2.43 13.2576 2.43 16.2475 5.41995C19.2353 8.40771 19.2375 13.2505 16.2541 16.2409C16.2519 16.2431 16.2497 16.2453 16.2475 16.2475C16.2453 16.2497 16.2431 16.2519 16.241 16.2541C13.2505 19.2375 8.40771 19.2353 5.41995 16.2475Z" fill="black"/>
</svg>
