<?xml version="1.0" encoding="UTF-8" standalone="no" ?>
<!DOCTYPE svg PUBLIC "-//W3C//DTD SVG 1.1//EN" "http://www.w3.org/Graphics/SVG/1.1/DTD/svg11.dtd">
<svg xmlns="http://www.w3.org/2000/svg" xmlns:xlink="http://www.w3.org/1999/xlink" version="1.1" width="24" height="28" viewBox="0 0 24 28" xml:space="preserve">
<desc>Created with Fabric.js 3.6.3</desc>
<defs>
</defs>
<g transform="matrix(1 0 0 1 12.07 14.47)"  >
<path style="stroke: none; stroke-width: 1; stroke-dasharray: none; stroke-linecap: butt; stroke-dashoffset: 0; stroke-linejoin: miter; stroke-miterlimit: 4; fill: rgb(255,255,255); fill-rule: evenodd; opacity: 1;"  transform=" translate(-17.5, -17.44)" d="M 10.573 10.5728 V 10.398 C 10.573 7.23673 12.7133 4.47649 15.775 3.6892 C 16.9067 3.3982 18.0936 3.3982 19.2252 3.6892 C 22.2869 4.47649 24.4272 7.23674 24.4272 10.398 V 10.5728 H 26.6163 C 27.4494 10.5728 28.1565 11.1839 28.2773 12.0082 L 28.5962 14.1847 C 29.2241 18.4699 29.2241 22.8238 28.5962 27.109 C 28.293 29.1785 26.6242 30.7783 24.5438 30.9941 L 23.6267 31.0892 C 19.5532 31.5116 15.447 31.5116 11.3735 31.0892 L 10.4564 30.9941 C 8.37598 30.7783 6.70723 29.1785 6.40401 27.109 C 5.77614 22.8238 5.77614 18.4699 6.40401 14.1847 L 6.72291 12.0082 C 6.84369 11.1839 7.55076 10.5728 8.38388 10.5728 H 10.573 Z M 16.3198 5.80778 C 17.0941 5.60867 17.9061 5.60867 18.6805 5.80778 C 20.7753 6.34645 22.2397 8.23504 22.2397 10.398 V 10.5728 H 12.7605 V 10.398 C 12.7605 8.23504 14.2249 6.34645 16.3198 5.80778 Z M 10.573 12.7603 V 16.0416 C 10.573 16.6457 11.0627 17.1353 11.6668 17.1353 C 12.2708 17.1353 12.7605 16.6457 12.7605 16.0416 V 12.7603 H 22.2397 V 16.0416 C 22.2397 16.6457 22.7294 17.1353 23.3334 17.1353 C 23.9375 17.1353 24.4272 16.6457 24.4272 16.0416 V 12.7603 H 26.1766 L 26.4318 14.5018 C 27.0289 18.5768 27.0289 22.717 26.4318 26.7919 C 26.2736 27.8713 25.4033 28.7057 24.3182 28.8182 L 23.4011 28.9134 C 19.4776 29.3202 15.5226 29.3202 11.5991 28.9134 L 10.682 28.8182 C 9.59693 28.7057 8.72655 27.8713 8.5684 26.7919 C 7.97134 22.717 7.97134 18.5767 8.5684 14.5018 L 8.82356 12.7603 H 10.573 Z" stroke-linecap="round" />
</g>
</svg>